<?xml version="1.0" encoding="UTF-8" standalone="no"?>
<svg
   width="32"
   height="32"
   viewBox="0 0 8.4666665 8.4666669"
   version="1.1"
   id="svg20249"
   inkscape:version="1.1.2 (b8e25be8, 2022-02-05)"
   sodipodi:docname="baseicon-mac.svg"
   xmlns:inkscape="http://www.inkscape.org/namespaces/inkscape"
   xmlns:sodipodi="http://sodipodi.sourceforge.net/DTD/sodipodi-0.dtd"
   xmlns:xlink="http://www.w3.org/1999/xlink"
   xmlns="http://www.w3.org/2000/svg"
   xmlns:svg="http://www.w3.org/2000/svg"
   xmlns:rdf="http://www.w3.org/1999/02/22-rdf-syntax-ns#"
   xmlns:cc="http://creativecommons.org/ns#"
   xmlns:dc="http://purl.org/dc/elements/1.1/">
  <defs
     id="defs20243">
    <inkscape:path-effect
       effect="clone_original"
       linkeditem="#rect824-2-2"
       method="bsplinespiro"
       allow_transforms="false"
       id="path-effect29"
       lpeversion="1" />
    <linearGradient
       inkscape:collect="always"
       id="linearGradient9165">
      <stop
         style="stop-color:#ff641b;stop-opacity:1"
         offset="0"
         id="stop9161" />
      <stop
         style="stop-color:#f3c800;stop-opacity:1"
         offset="1"
         id="stop9163" />
    </linearGradient>
    <clipPath
       clipPathUnits="userSpaceOnUse"
       id="clipPath976">
      <path
         id="path978"
         style="fill:url(#linearGradient980);fill-opacity:1;fill-rule:evenodd;stroke-width:0.999999"
         d="m 16.03125,2.9980724 a 13.000112,13.000112 0 0 0 -0.152345,0.00197 H 9.0000005 C 5.6759725,3.0000378 3,5.676019 3,9.0000379 v 6.9687311 7.031244 c 0,3.324018 2.6759725,6 6.0000005,6 H 23 c 3.324028,0 6.000001,-2.675982 6.000001,-6 V 16.029317 9.0000379 C 29.000001,5.676019 26.324028,3.0000378 23,3.0000378 h -6.867188 a 13.000112,13.000112 0 0 0 -0.101562,-0.00197 z" />
    </clipPath>
    <linearGradient
       inkscape:collect="always"
       xlink:href="#linearGradient9165"
       id="linearGradient980"
       gradientUnits="userSpaceOnUse"
       gradientTransform="translate(0,7.5590552e-5)"
       x1="3"
       y1="29"
       x2="30.5"
       y2="1.5" />
    <clipPath
       clipPathUnits="userSpaceOnUse"
       id="clipPath976-8">
      <path
         id="path978-4"
         style="fill:url(#linearGradient980);fill-opacity:1;fill-rule:evenodd;stroke-width:0.999999"
         d="m 16.03125,2.9980724 a 13.000112,13.000112 0 0 0 -0.152345,0.00197 H 9.0000005 C 5.6759725,3.0000378 3,5.676019 3,9.0000379 v 6.9687311 7.031244 c 0,3.324018 2.6759725,6 6.0000005,6 H 23 c 3.324028,0 6.000001,-2.675982 6.000001,-6 V 16.029317 9.0000379 C 29.000001,5.676019 26.324028,3.0000378 23,3.0000378 h -6.867188 a 13.000112,13.000112 0 0 0 -0.101562,-0.00197 z" />
    </clipPath>
    <filter
       inkscape:collect="always"
       style="color-interpolation-filters:sRGB"
       id="filter1094-4"
       x="-inf"
       width="inf"
       y="-inf"
       height="inf">
      <feGaussianBlur
         inkscape:collect="always"
         stdDeviation="1.4440341"
         id="feGaussianBlur1096-6" />
    </filter>
    <inkscape:path-effect
       effect="clone_original"
       linkeditem="#rect824-2-2"
       method="bsplinespiro"
       allow_transforms="false"
       id="path-effect29-1"
       lpeversion="1"
       is_visible="true"
       attributes=""
       css_properties="" />
    <clipPath
       clipPathUnits="userSpaceOnUse"
       id="clipPath976-9">
      <path
         id="path978-7"
         style="fill:url(#linearGradient980);fill-opacity:1;fill-rule:evenodd;stroke-width:0.999999"
         d="m 16.03125,2.9980724 a 13.000112,13.000112 0 0 0 -0.152345,0.00197 H 9.0000005 C 5.6759725,3.0000378 3,5.676019 3,9.0000379 v 6.9687311 7.031244 c 0,3.324018 2.6759725,6 6.0000005,6 H 23 c 3.324028,0 6.000001,-2.675982 6.000001,-6 V 16.029317 9.0000379 C 29.000001,5.676019 26.324028,3.0000378 23,3.0000378 h -6.867188 a 13.000112,13.000112 0 0 0 -0.101562,-0.00197 z" />
    </clipPath>
    <filter
       inkscape:collect="always"
       style="color-interpolation-filters:sRGB"
       id="filter1094"
       x="-inf"
       width="inf"
       y="-inf"
       height="inf">
      <feGaussianBlur
         inkscape:collect="always"
         stdDeviation="1.4440341"
         id="feGaussianBlur1096" />
    </filter>
    <inkscape:path-effect
       effect="clone_original"
       linkeditem="#rect824-2-2"
       method="bsplinespiro"
       allow_transforms="false"
       id="path-effect29-0"
       lpeversion="1"
       is_visible="true"
       attributes=""
       css_properties="" />
  </defs>
  <sodipodi:namedview
     id="base"
     pagecolor="#ffffff"
     bordercolor="#666666"
     borderopacity="1.0"
     inkscape:pageopacity="0.0"
     inkscape:pageshadow="2"
     inkscape:zoom="19.126673"
     inkscape:cx="11.397696"
     inkscape:cy="17.279534"
     inkscape:document-units="mm"
     inkscape:current-layer="iconlayer"
     showgrid="true"
     units="px"
     inkscape:window-width="1680"
     inkscape:window-height="907"
     inkscape:window-x="0"
     inkscape:window-y="25"
     inkscape:window-maximized="0"
     inkscape:document-rotation="0"
     inkscape:pagecheckerboard="0">
    <inkscape:grid
       type="xygrid"
       id="grid20794"
       empspacing="4"
       enabled="true" />
    <inkscape:grid
       type="xygrid"
       id="grid20796"
       empspacing="1"
       originy="0.13229167"
       originx="0.13229167"
       dotted="true"
       enabled="true" />
  </sodipodi:namedview>
  <metadata
     id="metadata20246">
    <rdf:RDF>
      <cc:Work
         rdf:about="">
        <dc:format>image/svg+xml</dc:format>
        <dc:type
           rdf:resource="http://purl.org/dc/dcmitype/StillImage" />
      </cc:Work>
    </rdf:RDF>
  </metadata>
  <g
     inkscape:label="Base"
     inkscape:groupmode="layer"
     id="layer1"
     transform="translate(0,-288.53332)"
     sodipodi:insensitive="true">
    <path
       id="rect288"
       style="fill:#646464;fill-opacity:1;fill-rule:evenodd;stroke-width:0.999999"
       d="M 16.03125,2.9980469 A 13.000112,13.000112 0 0 0 15.878906,3 H 9 C 5.6759724,3 3,5.6759811 3,9 V 15.96875 23 c 0,3.324019 2.6759724,6 6,6 h 14 c 3.324028,0 6,-2.675981 6,-6 V 16.029297 9 C 29,5.6759811 26.324028,3 23,3 H 16.132812 A 13.000112,13.000112 0 0 0 16.03125,2.99805 Z m -0.01563,1 h 0.02344 c 0.02344,4.049e-4 0.04687,0.00141 0.07031,0.00195 H 16.121094 23 c 2.787331,0 5,2.212678 5,5 V 16.029297 23 c 0,2.787322 -2.212669,5 -5,5 H 9 C 6.2126697,28 4,25.787322 4,23 V 15.96875 9 C 4,6.2126781 6.2126697,4 9,4 h 6.888672 0.0098 c 0.03906,-7.297e-4 0.07812,-0.0016 0.117187,-0.00195 z"
       transform="matrix(0.26458333,0,0,0.26458333,0,288.53332)" />
    <path
       id="rect824-2-2-2"
       style="fill:#646464;fill-opacity:1;stroke:none;stroke-width:0.292793;stroke-linecap:round;stroke-linejoin:round;stroke-miterlimit:4;stroke-dasharray:none;stroke-dashoffset:0;stroke-opacity:1;paint-order:normal"
       d="m 4.4609887,291.93795 c -0.057439,-0.0157 -0.1147587,-0.0256 -0.1718626,-0.0295 l -4.991e-4,-1.4e-4 c -0.3997524,-0.0265 -0.7744139,0.22925 -0.8844453,0.63131 l -0.8780438,3.20902 -0.122781,0.45823 1.8333886,1.3e-4 -0.002,-5.4e-4 1.8510644,5e-5 c 0.8794805,1e-5 1.5873292,-0.70784 1.5873287,-1.58732 l 3.088e-4,-1.31493 -5.725e-4,-0.49503 -1.2463925,-0.33396 z m 1.9654972,0.53736 0.00267,-0.01 -4.992e-4,-1.3e-4 z" />
    <path
       id="path1083"
       style="fill:none;fill-opacity:1;fill-rule:evenodd;stroke-width:0.999999"
       d="M 16.03125,2.9980469 A 13.000112,13.000112 45 0 0 15.878906,3 H 9 C 5.6759724,3 3,5.6759811 3,9 V 15.96875 23 c 0,3.324019 2.6759724,6 6,6 h 14 c 3.324028,0 6,-2.675981 6,-6 V 16.029297 9 C 29,5.6759811 26.324028,3 23,3 H 16.132812 A 13.000112,13.000112 45 0 0 16.03125,2.99805 Z"
       transform="matrix(0.26458333,0,0,0.26458333,0,288.53332)" />
  </g>
  <g
     inkscape:groupmode="layer"
     id="iconlayer"
     inkscape:label="Icon">
    <path
       d="M 0,0"
       id="path31"
       transform="scale(0.26458333)"
       inkscape:original-d="M 0,0"
       inkscape:path-effect="#path-effect29-0"
       clip-path="url(#clipPath976-9)"
       style="filter:url(#filter1094)" />
    <g
       aria-label="$"
       transform="rotate(15)"
       id="text881-3"
       style="font-size:3.30498px;line-height:1.25;font-family:Contemporary;-inkscape-font-specification:Contemporary;letter-spacing:0px;word-spacing:0px;fill:#ffffff;stroke-width:0.0826247">
      <path
         d="m 6.1786865,3.0707273 q 0.2016038,0.029745 0.3536329,0.1288942 0.155334,0.099149 0.2379585,0.2247387 0.082624,0.1255892 0.089234,0.2313486 0.00331,0.029745 -0.01983,0.05288 -0.023135,0.01983 -0.05288,0.01983 H 6.6512987 q -0.03966,0 -0.05949,-0.01322 -0.01983,-0.016525 -0.042965,-0.05949 Q 6.4959646,3.5532544 6.3637654,3.454105 6.2348712,3.3549556 6.0200475,3.3549556 q -0.1982988,0 -0.337108,0.089234 -0.1355042,0.089235 -0.1355042,0.2544835 0,0.1123693 0.0661,0.1850789 0.069405,0.069405 0.2049088,0.1222842 0.1388092,0.049575 0.4164275,0.1222843 0.3767677,0.099149 0.5321018,0.2445685 0.158639,0.1421142 0.158639,0.3899877 0,0.2710083 -0.2049088,0.4527822 Q 6.5190995,5.3974332 6.1786865,5.430483 v 0.2148237 q 0,0.036355 -0.02644,0.062795 -0.02644,0.02644 -0.062795,0.02644 H 5.9539479 q -0.036355,0 -0.062795,-0.02644 -0.02644,-0.02644 -0.02644,-0.062795 V 5.4238731 Q 5.6631096,5.3941283 5.5011656,5.2982838 5.3392216,5.2024394 5.2466821,5.0768502 5.1541427,4.947956 5.1508377,4.8223667 q 0,-0.029745 0.01983,-0.049575 0.023135,-0.023135 0.05288,-0.023135 h 0.1355042 q 0.036355,0 0.05949,0.016525 0.023135,0.01322 0.042965,0.056185 0.05288,0.1189793 0.1916889,0.2181287 0.1421141,0.099149 0.3833777,0.099149 0.2412635,0 0.4065125,-0.1024544 0.168554,-0.1057593 0.168554,-0.2743133 0,-0.1090644 -0.089234,-0.1817739 Q 6.436475,4.5050886 6.2844459,4.4555139 6.1324168,4.4026342 5.8382736,4.3266197 5.5176905,4.2439952 5.3755764,4.0886611 5.2334622,3.9300221 5.2334622,3.6986735 q 0,-0.1520291 0.069405,-0.2842283 Q 5.3755764,3.278941 5.5176905,3.1864016 5.6598047,3.0938621 5.8647134,3.0674223 V 2.8492936 q 0,-0.036355 0.02644,-0.062795 0.02644,-0.02644 0.062795,-0.02644 h 0.1355042 q 0.036355,0 0.062795,0.02644 0.02644,0.02644 0.02644,0.062795 z"
         id="path913" />
    </g>
    <path
       d="M 0,0"
       id="path31-4"
       inkscape:original-d="M 0,0"
       inkscape:path-effect="#path-effect29-1"
       clip-path="url(#clipPath976-8)"
       style="filter:url(#filter1094-4)"
       transform="translate(0,-288.53332)" />
  </g>
</svg>
