<?xml version="1.0" encoding="UTF-8" standalone="no"?>
<svg
   width="32"
   height="32"
   viewBox="0 0 8.4666665 8.4666669"
   version="1.1"
   id="svg20249"
   inkscape:version="1.1.2 (b8e25be8, 2022-02-05)"
   sodipodi:docname="theterminal-macos.svg"
   xmlns:inkscape="http://www.inkscape.org/namespaces/inkscape"
   xmlns:sodipodi="http://sodipodi.sourceforge.net/DTD/sodipodi-0.dtd"
   xmlns:xlink="http://www.w3.org/1999/xlink"
   xmlns="http://www.w3.org/2000/svg"
   xmlns:svg="http://www.w3.org/2000/svg"
   xmlns:rdf="http://www.w3.org/1999/02/22-rdf-syntax-ns#"
   xmlns:cc="http://creativecommons.org/ns#"
   xmlns:dc="http://purl.org/dc/elements/1.1/">
  <defs
     id="defs20243">
    <inkscape:path-effect
       effect="clone_original"
       linkeditem="#rect824-2-2"
       method="bsplinespiro"
       allow_transforms="false"
       id="path-effect29"
       lpeversion="1" />
    <linearGradient
       inkscape:collect="always"
       id="linearGradient9165">
      <stop
         style="stop-color:#ff641b;stop-opacity:1"
         offset="0"
         id="stop9161" />
      <stop
         style="stop-color:#f3c800;stop-opacity:1"
         offset="1"
         id="stop9163" />
    </linearGradient>
    <linearGradient
       inkscape:collect="always"
       xlink:href="#linearGradient820"
       id="linearGradient1149"
       x1="3"
       y1="29"
       x2="30.5"
       y2="1.5"
       gradientUnits="userSpaceOnUse" />
    <clipPath
       clipPathUnits="userSpaceOnUse"
       id="clipPath976">
      <path
         id="path978"
         style="fill:url(#linearGradient980);fill-opacity:1;fill-rule:evenodd;stroke-width:0.999999"
         d="m 16.03125,2.9980724 a 13.000112,13.000112 0 0 0 -0.152345,0.00197 H 9.0000005 C 5.6759725,3.0000378 3,5.676019 3,9.0000379 v 6.9687311 7.031244 c 0,3.324018 2.6759725,6 6.0000005,6 H 23 c 3.324028,0 6.000001,-2.675982 6.000001,-6 V 16.029317 9.0000379 C 29.000001,5.676019 26.324028,3.0000378 23,3.0000378 h -6.867188 a 13.000112,13.000112 0 0 0 -0.101562,-0.00197 z" />
    </clipPath>
    <linearGradient
       inkscape:collect="always"
       xlink:href="#linearGradient9165"
       id="linearGradient980"
       gradientUnits="userSpaceOnUse"
       gradientTransform="translate(0,7.5590552e-5)"
       x1="3"
       y1="29"
       x2="30.5"
       y2="1.5" />
    <filter
       inkscape:collect="always"
       style="color-interpolation-filters:sRGB"
       id="filter1094"
       x="-0.17461416"
       width="1.3492283"
       y="-0.21323079"
       height="1.4264616">
      <feGaussianBlur
         inkscape:collect="always"
         stdDeviation="1.4440341"
         id="feGaussianBlur1096" />
    </filter>
    <linearGradient
       inkscape:collect="always"
       id="linearGradient820">
      <stop
         style="stop-color:#003296;stop-opacity:1"
         offset="0"
         id="stop816" />
      <stop
         style="stop-color:#0064c8;stop-opacity:1"
         offset="1"
         id="stop818" />
    </linearGradient>
  </defs>
  <sodipodi:namedview
     id="base"
     pagecolor="#ffffff"
     bordercolor="#666666"
     borderopacity="1.0"
     inkscape:pageopacity="0.0"
     inkscape:pageshadow="2"
     inkscape:zoom="10.702978"
     inkscape:cx="12.613312"
     inkscape:cy="19.807571"
     inkscape:document-units="mm"
     inkscape:current-layer="layer1"
     showgrid="true"
     units="px"
     inkscape:window-width="1332"
     inkscape:window-height="918"
     inkscape:window-x="0"
     inkscape:window-y="25"
     inkscape:window-maximized="0"
     inkscape:document-rotation="0"
     inkscape:pagecheckerboard="0">
    <inkscape:grid
       type="xygrid"
       id="grid20794"
       empspacing="4" />
    <inkscape:grid
       type="xygrid"
       id="grid20796"
       empspacing="1"
       originy="0.13229167"
       originx="0.13229167"
       dotted="true" />
  </sodipodi:namedview>
  <metadata
     id="metadata20246">
    <rdf:RDF>
      <cc:Work
         rdf:about="">
        <dc:format>image/svg+xml</dc:format>
        <dc:type
           rdf:resource="http://purl.org/dc/dcmitype/StillImage" />
      </cc:Work>
    </rdf:RDF>
  </metadata>
  <g
     inkscape:groupmode="layer"
     id="layer2"
     inkscape:label="Background" />
  <g
     inkscape:label="Layer 1"
     inkscape:groupmode="layer"
     id="layer1"
     transform="translate(0,-288.53332)">
    <path
       id="rect288"
       style="fill:url(#linearGradient1149);fill-rule:evenodd;stroke-width:0.999999;fill-opacity:1.0"
       d="M 16.03125 2.9980469 A 13.000112 13.000112 45 0 0 15.878906 3 L 9 3 C 5.6759724 3 3 5.6759811 3 9 L 3 15.96875 L 3 23 C 3 26.324019 5.6759724 29 9 29 L 23 29 C 26.324028 29 29 26.324019 29 23 L 29 16.029297 L 29 9 C 29 5.6759811 26.324028 3 23 3 L 16.132812 3 A 13.000112 13.000112 45 0 0 16.03125 2.9980469 z "
       transform="matrix(0.26458333,0,0,0.26458333,0,288.53332)" />
    <path
       d="m 16.208984,12.753906 c -1.51084,-0.100157 -2.927885,0.867122 -3.34375,2.386719 L 9.546875,27.267578 a 13.000112,13.000112 0 0 0 0.060547,0.0332 L 9.1523438,29 H 23 c 3.324028,0 6,-2.675981 6,-6 v -4.96875 -1.912109 l -4.703125,-1.259766 -0.0098,0.03906 -7.427734,-2.03125 c -0.217096,-0.05934 -0.434556,-0.09697 -0.650391,-0.111329 z"
       id="path31"
       transform="matrix(0.26458333,0,0,0.26458333,0,288.53332)"
       inkscape:original-d="M 0,0"
       inkscape:path-effect="#path-effect29"
       clip-path="url(#clipPath976)"
       style="filter:url(#filter1094)" />
    <path
       id="rect824-2-2"
       style="opacity:1;fill:#000000;fill-opacity:1;stroke:none;stroke-width:1.10662;stroke-linecap:round;stroke-linejoin:round;stroke-miterlimit:4;stroke-dasharray:none;stroke-dashoffset:0;stroke-opacity:1;paint-order:normal"
       d="M 16.208984 12.753906 C 14.698144 12.653749 13.281099 13.621028 12.865234 15.140625 L 9.546875 27.267578 A 13.000112 13.000112 0 0 0 9.6074219 27.300781 L 9.1523438 29 L 23 29 C 26.324028 29 29 26.324019 29 23 L 29 18.03125 L 29 16.119141 L 24.296875 14.859375 L 24.287109 14.898438 L 16.859375 12.867188 C 16.642279 12.807849 16.424819 12.770222 16.208984 12.755859 L 16.208984 12.753906 z "
       transform="matrix(0.26458333,0,0,0.26458333,0,288.53332)" />
    <text
       xml:space="preserve"
       style="font-style:normal;font-variant:normal;font-weight:normal;font-stretch:normal;font-size:3.30498px;line-height:1.25;font-family:Contemporary;-inkscape-font-specification:Contemporary;letter-spacing:0px;word-spacing:0px;fill:#ffffff;fill-opacity:1;stroke:none;stroke-width:0.0826247"
       x="79.709717"
       y="284.10587"
       id="text881-3"
       transform="rotate(15)"
       inkscape:export-filename="/home/victor/newcontemporary.png"
       inkscape:export-xdpi="2165.5593"
       inkscape:export-ydpi="2165.5593"><tspan
         sodipodi:role="line"
         id="tspan879-7"
         x="79.709717"
         y="284.10587"
         style="stroke-width:0.0826247">$</tspan></text>
  </g>
</svg>
