<?xml version="1.0" encoding="UTF-8" standalone="no"?>
<svg
   xmlns:dc="http://purl.org/dc/elements/1.1/"
   xmlns:cc="http://creativecommons.org/ns#"
   xmlns:rdf="http://www.w3.org/1999/02/22-rdf-syntax-ns#"
   xmlns:svg="http://www.w3.org/2000/svg"
   xmlns="http://www.w3.org/2000/svg"
   xmlns:sodipodi="http://sodipodi.sourceforge.net/DTD/sodipodi-0.dtd"
   xmlns:inkscape="http://www.inkscape.org/namespaces/inkscape"
   height="32"
   width="32"
   id="svg2"
   version="1.1"
   inkscape:version="0.92.1 r"
   sodipodi:docname="utilities-terminal.svg">
  <metadata
     id="metadata9">
    <rdf:RDF>
      <cc:Work
         rdf:about="">
        <dc:format>image/svg+xml</dc:format>
        <dc:type
           rdf:resource="http://purl.org/dc/dcmitype/StillImage" />
        <dc:title></dc:title>
      </cc:Work>
    </rdf:RDF>
  </metadata>
  <defs
     id="defs7" />
  <sodipodi:namedview
     id="namedview1"
     showgrid="true"
     inkscape:zoom="20.85965"
     inkscape:cx="14.005889"
     inkscape:cy="19.748847"
     inkscape:window-width="1680"
     inkscape:window-height="1016"
     inkscape:window-x="0"
     inkscape:window-y="0"
     inkscape:window-maximized="1"
     inkscape:current-layer="svg2">
    <inkscape:grid
       type="xygrid"
       id="grid1px"
       empspacing="4" />
    <inkscape:grid
       type="xygrid"
       id="grid1pxdot"
       empspacing="1"
       dotted="true"
       originy="0.5"
       originx="0.5" />
  </sodipodi:namedview>
  <path
     style="opacity:1;fill:#000000;fill-opacity:1;fill-rule:nonzero;stroke:none;stroke-width:1;stroke-linecap:round;stroke-linejoin:round;stroke-miterlimit:4;stroke-dasharray:none;stroke-dashoffset:0;stroke-opacity:1;paint-order:fill markers stroke"
     d="M 2.5 2 A 0.50005 0.50005 0 0 0 2 2.5 L 2 29.5 A 0.50005 0.50005 0 0 0 2.5 30 L 29.5 30 A 0.50005 0.50005 0 0 0 30 29.5 L 30 2.5 A 0.50005 0.50005 0 0 0 29.5 2 L 2.5 2 z M 8.3261719 7.1152344 L 9.1367188 7.1152344 C 9.281497 7.1152344 9.4064253 7.1681442 9.5117188 7.2734375 C 9.6170121 7.3787308 9.6699219 7.5036592 9.6699219 7.6484375 L 9.6699219 8.9707031 C 10.472784 9.0891581 11.175813 9.3473375 11.78125 9.7421875 C 12.399849 10.137037 12.874084 10.583841 13.203125 11.083984 C 13.532167 11.584128 13.710005 12.045624 13.736328 12.466797 C 13.749488 12.585252 13.709316 12.689119 13.617188 12.78125 C 13.525055 12.86022 13.421189 12.900391 13.302734 12.900391 L 12.492188 12.900391 C 12.334247 12.900391 12.215689 12.874912 12.136719 12.822266 C 12.057749 12.756459 11.972991 12.6379 11.880859 12.466797 C 11.670273 12.058786 11.301857 11.656569 10.775391 11.261719 C 10.262085 10.866869 9.5762115 10.669922 8.7207031 10.669922 C 7.9310031 10.669922 7.2598213 10.84776 6.7070312 11.203125 C 6.1674029 11.55849 5.8984375 12.064573 5.8984375 12.722656 C 5.8984375 13.170153 6.0297352 13.538568 6.2929688 13.828125 C 6.5693636 14.10452 6.9779498 14.348007 7.5175781 14.558594 C 8.0703681 14.756019 8.9002798 14.999507 10.005859 15.289062 C 11.506289 15.683912 12.564995 16.170887 13.183594 16.75 C 13.815354 17.315951 14.130859 18.092953 14.130859 19.080078 C 14.130859 20.159335 13.722273 21.061265 12.90625 21.785156 C 12.103388 22.509048 11.025574 22.936743 9.6699219 23.068359 L 9.6699219 24.351562 C 9.6699219 24.496342 9.617012 24.62127 9.5117188 24.726562 C 9.4064253 24.831856 9.281497 24.884766 9.1367188 24.884766 L 8.3261719 24.884766 C 8.1813935 24.884766 8.0564652 24.831856 7.9511719 24.726562 C 7.8458785 24.62127 7.7929687 24.496341 7.7929688 24.351562 L 7.7929688 23.029297 C 6.9901071 22.910842 6.2679686 22.659032 5.6230469 22.277344 C 4.9781252 21.895655 4.4700892 21.455221 4.1015625 20.955078 C 3.7330358 20.441773 3.5424585 19.93569 3.5292969 19.435547 C 3.5292969 19.317092 3.5694675 19.217642 3.6484375 19.138672 C 3.7405692 19.046541 3.8444356 19 3.9628906 19 L 4.7734375 19 C 4.9182158 19 5.0367746 19.033803 5.1289062 19.099609 C 5.2210379 19.152256 5.3057956 19.264445 5.3847656 19.435547 C 5.5953523 19.909367 5.9765068 20.343431 6.5292969 20.738281 C 7.0952485 21.133131 7.8595108 21.330078 8.8203125 21.330078 C 9.7811145 21.330078 10.589964 21.126762 11.248047 20.71875 C 11.919292 20.297577 12.255859 19.751323 12.255859 19.080078 C 12.255859 18.645743 12.078021 18.283697 11.722656 17.994141 C 11.380453 17.691423 10.906218 17.441566 10.300781 17.244141 C 9.6953445 17.033554 8.8081071 16.777327 7.6367188 16.474609 C 6.360037 16.145567 5.4370453 15.671332 4.8710938 15.052734 C 4.3051421 14.420974 4.0234375 13.643973 4.0234375 12.722656 C 4.0234375 12.11722 4.161105 11.551857 4.4375 11.025391 C 4.7270567 10.485762 5.1547515 10.030636 5.7207031 9.6621094 C 6.2866549 9.2935827 6.9769454 9.0564652 7.7929688 8.9511719 L 7.7929688 7.6484375 C 7.7929687 7.5036592 7.8458785 7.3787308 7.9511719 7.2734375 C 8.0564652 7.1681442 8.1813935 7.1152344 8.3261719 7.1152344 z M 16.585938 22.060547 L 27.9375 22.060547 C 28.082278 22.060547 28.207207 22.113457 28.3125 22.21875 C 28.417793 22.324043 28.470703 22.448971 28.470703 22.59375 L 28.470703 23.226562 C 28.470703 23.371342 28.417793 23.49627 28.3125 23.601562 C 28.207207 23.706856 28.082278 23.759766 27.9375 23.759766 L 16.585938 23.759766 C 16.441159 23.759766 16.31623 23.706856 16.210938 23.601562 C 16.105644 23.49627 16.052734 23.371341 16.052734 23.226562 L 16.052734 22.59375 C 16.052734 22.448971 16.105644 22.324043 16.210938 22.21875 C 16.31623 22.113457 16.441159 22.060547 16.585938 22.060547 z "
     id="rect4491" />
</svg>
