<?xml version="1.0" encoding="UTF-8" standalone="no"?>
<!-- Created with Inkscape (http://www.inkscape.org/) -->

<svg
   xmlns:dc="http://purl.org/dc/elements/1.1/"
   xmlns:cc="http://creativecommons.org/ns#"
   xmlns:rdf="http://www.w3.org/1999/02/22-rdf-syntax-ns#"
   xmlns:svg="http://www.w3.org/2000/svg"
   xmlns="http://www.w3.org/2000/svg"
   xmlns:xlink="http://www.w3.org/1999/xlink"
   xmlns:sodipodi="http://sodipodi.sourceforge.net/DTD/sodipodi-0.dtd"
   xmlns:inkscape="http://www.inkscape.org/namespaces/inkscape"
   width="20"
   height="10"
   viewBox="0 0 5.2916665 2.6458334"
   version="1.1"
   id="svg843"
   sodipodi:docname="splash.svg"
   inkscape:export-filename="/home/victor/Documents/Apps/theterminal/readme/splash.png"
   inkscape:export-xdpi="9600"
   inkscape:export-ydpi="9600"
   inkscape:version="0.92.4 5da689c313, 2019-01-14">
  <defs
     id="defs837">
    <linearGradient
       inkscape:collect="always"
       xlink:href="#linearGradient9085"
       id="linearGradient2317"
       x1="0"
       y1="296.99997"
       x2="5.2916665"
       y2="294.35416"
       gradientUnits="userSpaceOnUse" />
    <linearGradient
       id="linearGradient9085"
       inkscape:collect="always">
      <stop
         id="stop9081"
         offset="0"
         style="stop-color:#6464ff;stop-opacity:1" />
      <stop
         id="stop9083"
         offset="1"
         style="stop-color:#c8c8ff;stop-opacity:1" />
    </linearGradient>
    <linearGradient
       gradientTransform="matrix(0.10000001,0,0,0.80001203,0.26458333,58.867237)"
       inkscape:collect="always"
       xlink:href="#linearGradient9085"
       id="linearGradient2317-3-2"
       x1="0"
       y1="296.99997"
       x2="5.2916665"
       y2="294.35419"
       gradientUnits="userSpaceOnUse" />
    <linearGradient
       inkscape:collect="always"
       xlink:href="#linearGradient9209"
       id="linearGradient2515"
       x1="0.52916664"
       y1="296.47083"
       x2="0.52916664"
       y2="294.35416"
       gradientUnits="userSpaceOnUse" />
    <linearGradient
       id="linearGradient9209"
       inkscape:collect="always">
      <stop
         id="stop9205"
         offset="0"
         style="stop-color:#0064d9;stop-opacity:1" />
      <stop
         id="stop9207"
         offset="1"
         style="stop-color:#22c8ff;stop-opacity:1" />
    </linearGradient>
    <linearGradient
       gradientTransform="translate(0,9.5417321e-6)"
       inkscape:collect="always"
       xlink:href="#linearGradient820"
       id="linearGradient2515-7"
       x1="0.52916664"
       y1="296.47083"
       x2="0.52916664"
       y2="294.35416"
       gradientUnits="userSpaceOnUse" />
    <linearGradient
       inkscape:collect="always"
       xlink:href="#linearGradient820"
       id="linearGradient822-687"
       x1="4.6862917"
       y1="35.595917"
       x2="27.313709"
       y2="-3.5959179"
       gradientUnits="userSpaceOnUse"
       gradientTransform="matrix(0.02068981,0,0,0.02068981,77.885867,284.6782)" />
    <linearGradient
       inkscape:collect="always"
       id="linearGradient820">
      <stop
         style="stop-color:#003296;stop-opacity:1"
         offset="0"
         id="stop816" />
      <stop
         style="stop-color:#0064c8;stop-opacity:1"
         offset="1"
         id="stop818" />
    </linearGradient>
  </defs>
  <sodipodi:namedview
     id="base"
     pagecolor="#ffffff"
     bordercolor="#666666"
     borderopacity="1.0"
     inkscape:pageopacity="0.0"
     inkscape:pageshadow="2"
     inkscape:zoom="32"
     inkscape:cx="6.6137194"
     inkscape:cy="4.2393948"
     inkscape:document-units="mm"
     inkscape:current-layer="layer1"
     showgrid="true"
     units="px"
     showguides="true"
     inkscape:window-width="1920"
     inkscape:window-height="1046"
     inkscape:window-x="0"
     inkscape:window-y="0"
     inkscape:window-maximized="1">
    <inkscape:grid
       type="xygrid"
       id="grid1391"
       enabled="true" />
    <inkscape:grid
       type="xygrid"
       id="grid1393"
       originy="0.13229167"
       originx="0.13229167"
       dotted="true"
       empspacing="1"
       enabled="true" />
  </sodipodi:namedview>
  <metadata
     id="metadata840">
    <rdf:RDF>
      <cc:Work
         rdf:about="">
        <dc:format>image/svg+xml</dc:format>
        <dc:type
           rdf:resource="http://purl.org/dc/dcmitype/StillImage" />
        <dc:title></dc:title>
      </cc:Work>
    </rdf:RDF>
  </metadata>
  <g
     inkscape:label="Layer 1"
     inkscape:groupmode="layer"
     id="layer1"
     transform="translate(0,-294.35415)">
    <rect
       style="opacity:1;fill:#ffffff;fill-opacity:1;stroke:none;stroke-width:0.26499999;stroke-linecap:round;stroke-linejoin:round;stroke-miterlimit:4;stroke-dasharray:none;stroke-dashoffset:0;stroke-opacity:1;paint-order:normal"
       id="rect2664-1"
       width="5.2916665"
       height="2.6458333"
       x="0"
       y="294.35416" />
    <path
       style="fill:url(#linearGradient2515-7);fill-opacity:1.0;stroke:none;stroke-width:0.26458332px;stroke-linecap:butt;stroke-linejoin:miter;stroke-opacity:1"
       d="m 0.26458333,294.35415 v 2.11667 l 0.26458334,-0.26459 0.26458333,0.26459 v -2.11667 z"
       id="path2507-4"
       inkscape:connector-curvature="0"
       sodipodi:nodetypes="cccccc" />
    <g
       aria-label="theTerminal"
       style="font-style:normal;font-variant:normal;font-weight:normal;font-stretch:normal;font-size:0.44179374px;line-height:1.25;font-family:Contemporary;-inkscape-font-specification:Contemporary;letter-spacing:0px;word-spacing:0px;fill:#000000;fill-opacity:1;stroke:none;stroke-width:0.01104483"
       id="text2536-7">
      <path
         d="m 2.3233222,295.68486 q 0,0.005 0.00398,0.008 0.00442,0.003 0.00928,0.003 h 0.016346 q 0.00486,0 0.00839,-0.004 0.00353,-0.004 0.00353,-0.008 l -0.00133,-0.17981 h 0.046388 q 0.00486,0 0.00839,-0.004 0.00353,-0.004 0.00353,-0.008 v -0.0141 q 0,-0.005 -0.00353,-0.008 -0.00353,-0.004 -0.00839,-0.004 h -0.046388 v -0.072 q 0,-0.005 -0.00353,-0.008 -0.00353,-0.004 -0.00839,-0.004 h -0.016346 q -0.00486,0 -0.00839,0.004 -0.00353,0.004 -0.00353,0.008 v 0.072 H 2.28091 q -0.00486,0 -0.00839,0.004 -0.00353,0.004 -0.00353,0.008 v 0.0141 q 0,0.005 0.00353,0.008 0.00353,0.004 0.00839,0.004 h 0.042412 z"
         style="stroke-width:0.01104483"
         id="path3661" />
      <path
         d="m 2.674548,295.68442 q 0,0.005 -0.00353,0.008 -0.00353,0.004 -0.00839,0.004 h -0.016346 q -0.00486,0 -0.00839,-0.004 -0.00353,-0.004 -0.00353,-0.008 v -0.11663 q 0,-0.0331 -0.016346,-0.0504 -0.016346,-0.0172 -0.045505,-0.0172 -0.028717,0 -0.045505,0.0172 -0.016346,0.0172 -0.016346,0.0504 v 0.11663 q 0,0.005 -0.00353,0.008 -0.00353,0.004 -0.00839,0.004 h -0.016346 q -0.00486,0 -0.00839,-0.004 -0.00353,-0.004 -0.00353,-0.008 v -0.28982 q 0,-0.005 0.00353,-0.008 0.00353,-0.004 0.00839,-0.004 h 0.016346 q 0.00486,0 0.00839,0.004 0.00353,0.004 0.00353,0.008 v 0.0976 q 0.00972,-0.0128 0.026508,-0.0212 0.01723,-0.009 0.04197,-0.009 0.027833,0 0.049481,0.0119 0.021648,0.0119 0.033576,0.0345 0.01237,0.0221 0.01237,0.0526 z"
         style="stroke-width:0.01104483"
         id="path3663" />
      <path
         d="m 2.829176,295.4622 q 0.047272,0 0.074663,0.03 0.027391,0.03 0.027391,0.0817 v 0.0119 q 0,0.005 -0.00353,0.008 -0.00353,0.004 -0.00839,0.004 H 2.7673248 v 0.003 q 8.836e-4,0.0292 0.017672,0.046 0.01723,0.0163 0.044179,0.0163 0.02209,0 0.034018,-0.006 0.01237,-0.006 0.02209,-0.0164 0.00353,-0.004 0.00619,-0.005 0.00309,-0.001 0.00795,-0.001 h 0.013254 q 0.0053,0 0.00884,0.004 0.00353,0.004 0.00309,0.008 -0.00177,0.0119 -0.013254,0.0247 -0.011045,0.0124 -0.032251,0.0212 -0.020764,0.008 -0.049923,0.008 -0.028275,0 -0.050364,-0.0128 -0.02209,-0.0133 -0.035344,-0.0362 -0.012812,-0.023 -0.015463,-0.0517 -8.836e-4,-0.0132 -8.836e-4,-0.0203 0,-0.007 8.836e-4,-0.0203 0.00265,-0.0274 0.015463,-0.0495 0.013254,-0.0221 0.034902,-0.0349 0.02209,-0.0128 0.050806,-0.0128 z m 0.062293,0.0985 v -0.001 q 0,-0.0269 -0.01723,-0.0428 -0.016788,-0.0164 -0.045063,-0.0164 -0.025624,0 -0.043738,0.0164 -0.017672,0.0163 -0.018114,0.0428 v 0.001 z"
         style="stroke-width:0.01104483"
         id="path3665" />
      <path
         d="m 3.1406404,295.38709 q 0.00486,0 0.00839,0.004 0.00353,0.004 0.00353,0.008 v 0.0159 q 0,0.005 -0.00353,0.008 -0.00353,0.004 -0.00839,0.004 h -0.082616 v 0.25756 q 0,0.005 -0.00353,0.008 -0.00353,0.004 -0.00839,0.004 H 3.027983 q -0.00486,0 -0.00839,-0.004 -0.00353,-0.004 -0.00353,-0.008 v -0.25756 h -0.082615 q -0.00486,0 -0.00839,-0.004 -0.00353,-0.004 -0.00353,-0.008 v -0.0159 q 0,-0.005 0.00353,-0.008 0.00353,-0.004 0.00839,-0.004 z"
         style="stroke-width:0.01104483"
         id="path3667" />
      <path
         d="m 3.2444623,295.4622 q 0.047272,0 0.074663,0.03 0.027391,0.03 0.027391,0.0817 v 0.0119 q 0,0.005 -0.00353,0.008 -0.00353,0.004 -0.00839,0.004 H 3.1826112 v 0.003 q 8.836e-4,0.0292 0.017672,0.046 0.01723,0.0163 0.044179,0.0163 0.02209,0 0.034018,-0.006 0.01237,-0.006 0.02209,-0.0164 0.00353,-0.004 0.00619,-0.005 0.00309,-0.001 0.00795,-0.001 h 0.013254 q 0.0053,0 0.00884,0.004 0.00353,0.004 0.00309,0.008 -0.00177,0.0119 -0.013254,0.0247 -0.011045,0.0124 -0.032251,0.0212 -0.020764,0.008 -0.049923,0.008 -0.028275,0 -0.050364,-0.0128 -0.02209,-0.0133 -0.035344,-0.0362 -0.012812,-0.023 -0.015463,-0.0517 -8.836e-4,-0.0132 -8.836e-4,-0.0203 0,-0.007 8.836e-4,-0.0203 0.00265,-0.0274 0.015463,-0.0495 0.013254,-0.0221 0.034902,-0.0349 0.02209,-0.0128 0.050806,-0.0128 z m 0.062293,0.0985 v -0.001 q 0,-0.0269 -0.01723,-0.0428 -0.016788,-0.0164 -0.045063,-0.0164 -0.025624,0 -0.043737,0.0164 -0.017672,0.0163 -0.018114,0.0428 v 0.001 z"
         style="stroke-width:0.01104483"
         id="path3669" />
      <path
         d="m 3.5166069,295.46662 q 0.00486,0 0.00839,0.004 0.00353,0.004 0.00353,0.008 v 0.0141 q 0,0.005 -0.00353,0.008 -0.00353,0.004 -0.00839,0.004 h -0.025624 q -0.024741,0 -0.037994,0.0133 -0.012812,0.0128 -0.012812,0.0376 v 0.129 q 0,0.005 -0.00353,0.008 -0.00353,0.004 -0.00839,0.004 h -0.016346 q -0.00486,0 -0.00839,-0.004 -0.00353,-0.004 -0.00353,-0.008 v -0.20587 q 0,-0.005 0.00353,-0.008 0.00353,-0.004 0.00839,-0.004 h 0.016346 q 0.00486,0 0.00839,0.004 0.00353,0.004 0.00353,0.008 v 0.0137 q 0.00884,-0.0132 0.021206,-0.0194 0.01237,-0.006 0.032251,-0.006 z"
         style="stroke-width:0.01104483"
         id="path3671" />
      <path
         d="m 3.6071747,295.49224 q 0.010603,-0.0137 0.023857,-0.0216 0.013254,-0.008 0.035344,-0.008 0.05169,0 0.072454,0.0384 0.012812,-0.0186 0.029158,-0.0283 0.016346,-0.0102 0.042854,-0.0102 0.043296,0 0.06406,0.0261 0.021206,0.0261 0.021206,0.0738 v 0.12238 q 0,0.005 -0.00353,0.008 -0.00353,0.004 -0.00839,0.004 H 3.867833 q -0.00486,0 -0.00839,-0.004 -0.00353,-0.004 -0.00353,-0.008 v -0.11796 q 0,-0.0663 -0.052132,-0.0663 -0.023857,0 -0.037994,0.0159 -0.014137,0.0159 -0.014137,0.0473 v 0.12105 q 0,0.005 -0.00353,0.008 -0.00353,0.004 -0.00839,0.004 h -0.016346 q -0.00486,0 -0.00839,-0.004 -0.00353,-0.004 -0.00353,-0.008 v -0.11796 q 0,-0.0663 -0.052132,-0.0663 -0.023857,0 -0.037994,0.0159 -0.014137,0.0159 -0.014137,0.0473 v 0.12105 q 0,0.005 -0.00353,0.008 -0.00353,0.004 -0.00839,0.004 h -0.016346 q -0.00486,0 -0.00839,-0.004 -0.00353,-0.004 -0.00353,-0.008 v -0.20587 q 0,-0.005 0.00353,-0.008 0.00353,-0.004 0.00839,-0.004 h 0.016346 q 0.00486,0 0.00839,0.004 0.00353,0.004 0.00353,0.008 z"
         style="stroke-width:0.01104483"
         id="path3673" />
      <path
         d="m 4.0047889,295.42376 q 0,0.005 -0.00353,0.008 -0.00353,0.004 -0.00839,0.004 h -0.025182 q -0.00486,0 -0.00839,-0.004 -0.00353,-0.004 -0.00353,-0.008 v -0.0252 q 0,-0.005 0.00353,-0.008 0.00353,-0.004 0.00839,-0.004 h 0.025182 q 0.00486,0 0.00839,0.004 0.00353,0.004 0.00353,0.008 z m -0.00442,0.26066 q 0,0.005 -0.00353,0.008 -0.00353,0.004 -0.00839,0.004 h -0.016346 q -0.00486,0 -0.00839,-0.004 -0.00353,-0.004 -0.00353,-0.008 v -0.20587 q 0,-0.005 0.00353,-0.008 0.00353,-0.004 0.00839,-0.004 h 0.016346 q 0.00486,0 0.00839,0.004 0.00353,0.004 0.00353,0.008 z"
         style="stroke-width:0.01104483"
         id="path3675" />
      <path
         d="m 4.2707483,295.68442 q 0,0.005 -0.00353,0.008 -0.00353,0.004 -0.00839,0.004 h -0.016346 q -0.00486,0 -0.00839,-0.004 -0.00353,-0.004 -0.00353,-0.008 v -0.11663 q 0,-0.0331 -0.016346,-0.0504 -0.016346,-0.0172 -0.045505,-0.0172 -0.028717,0 -0.045505,0.0172 -0.016346,0.0172 -0.016346,0.0504 v 0.11663 q 0,0.005 -0.00353,0.008 -0.00353,0.004 -0.00839,0.004 H 4.078568 q -0.00486,0 -0.00839,-0.004 -0.00353,-0.004 -0.00353,-0.008 v -0.20587 q 0,-0.005 0.00353,-0.008 0.00353,-0.004 0.00839,-0.004 h 0.016346 q 0.00486,0 0.00839,0.004 0.00353,0.004 0.00353,0.008 v 0.0137 q 0.00972,-0.0128 0.026508,-0.0212 0.01723,-0.009 0.04197,-0.009 0.027833,0 0.049481,0.0119 0.021648,0.0119 0.033576,0.0345 0.01237,0.0221 0.01237,0.0526 z"
         style="stroke-width:0.01104483"
         id="path3677" />
      <path
         d="m 4.4713229,295.551 v -0.006 q 0,-0.0216 -0.014579,-0.0331 -0.014137,-0.0119 -0.037111,-0.0119 -0.017672,0 -0.027833,0.006 -0.00972,0.006 -0.018555,0.0177 -0.00265,0.004 -0.00574,0.005 -0.00309,0.001 -0.00839,0.001 h -0.013254 q -0.00486,0 -0.00884,-0.004 -0.00353,-0.004 -0.00309,-0.008 0.00133,-0.0133 0.012812,-0.0261 0.011928,-0.0132 0.031367,-0.0216 0.019439,-0.008 0.041529,-0.008 0.041087,0 0.066269,0.023 0.025624,0.023 0.025624,0.0645 v 0.13475 q 0,0.005 -0.00353,0.008 -0.00353,0.004 -0.00839,0.004 h -0.016346 q -0.00486,0 -0.00839,-0.004 -0.00353,-0.004 -0.00353,-0.008 v -0.0181 q -0.00707,0.0159 -0.030042,0.0252 -0.022973,0.009 -0.045946,0.009 -0.022532,0 -0.040203,-0.008 -0.017672,-0.008 -0.027391,-0.0225 -0.00928,-0.0141 -0.00928,-0.0318 0,-0.0331 0.02474,-0.0517 0.024741,-0.019 0.065827,-0.0256 z m 0,0.0353 -0.052132,0.008 q -0.028717,0.004 -0.044621,0.0146 -0.015905,0.01 -0.015905,0.0247 0,0.011 0.010161,0.0199 0.010161,0.009 0.030926,0.009 0.031809,0 0.05169,-0.0181 0.019881,-0.0181 0.019881,-0.0473 z"
         style="stroke-width:0.01104483"
         id="path3679" />
      <path
         d="m 4.6162309,295.68442 q 0,0.005 -0.00353,0.008 -0.00353,0.004 -0.00839,0.004 h -0.016346 q -0.00486,0 -0.00839,-0.004 -0.00353,-0.004 -0.00353,-0.008 v -0.28982 q 0,-0.005 0.00353,-0.008 0.00353,-0.004 0.00839,-0.004 h 0.016346 q 0.00486,0 0.00839,0.004 0.00353,0.004 0.00353,0.008 z"
         style="stroke-width:0.01104483"
         id="path3681" />
    </g>
    <g
       aria-label="Terminal"
       style="font-style:normal;font-variant:normal;font-weight:normal;font-stretch:normal;font-size:0.20866239px;line-height:1.25;font-family:Contemporary;-inkscape-font-specification:Contemporary;letter-spacing:0px;word-spacing:0px;fill:#000000;fill-opacity:1;stroke:none;stroke-width:0.00521655"
       id="text2536-6-4">
      <path
         d="m 2.3649663,295.87472 q 0.0023,0 0.00396,0.002 0.00167,0.002 0.00167,0.004 v 0.008 q 0,0.002 -0.00167,0.004 -0.00167,0.002 -0.00396,0.002 h -0.03902 v 0.12165 q 0,0.002 -0.00167,0.004 -0.00167,0.002 -0.00396,0.002 h -0.00856 q -0.0023,0 -0.00396,-0.002 -0.00167,-0.002 -0.00167,-0.004 v -0.12165 h -0.03902 q -0.0023,0 -0.00396,-0.002 -0.00167,-0.002 -0.00167,-0.004 v -0.008 q 0,-0.002 0.00167,-0.004 0.00167,-0.002 0.00396,-0.002 z"
         style="stroke-width:0.00521655"
         id="path3644" />
      <path
         d="m 2.4140021,295.91019 q 0.022327,0 0.035264,0.0142 0.012937,0.0142 0.012937,0.0386 v 0.006 q 0,0.002 -0.00167,0.004 -0.00167,0.002 -0.00396,0.002 h -0.07178 v 0.001 q 4.173e-4,0.0138 0.00835,0.0217 0.00814,0.008 0.020866,0.008 0.010433,0 0.016067,-0.003 0.00584,-0.003 0.010433,-0.008 0.00167,-0.002 0.00292,-0.002 0.00146,-6.3e-4 0.00376,-6.3e-4 h 0.00626 q 0.0025,0 0.00417,0.002 0.00167,0.002 0.00146,0.004 -8.347e-4,0.006 -0.00626,0.0117 -0.00522,0.006 -0.015232,0.01 -0.00981,0.004 -0.023579,0.004 -0.013354,0 -0.023787,-0.006 -0.010433,-0.006 -0.016693,-0.0171 -0.00605,-0.0109 -0.0073,-0.0244 -4.173e-4,-0.006 -4.173e-4,-0.01 0,-0.003 4.173e-4,-0.01 0.00125,-0.0129 0.0073,-0.0234 0.00626,-0.0104 0.016484,-0.0165 0.010433,-0.006 0.023996,-0.006 z m 0.029421,0.0465 v -6.2e-4 q 0,-0.0127 -0.00814,-0.0202 -0.00793,-0.008 -0.021284,-0.008 -0.012102,0 -0.020658,0.008 -0.00835,0.008 -0.00856,0.0202 v 6.2e-4 z"
         style="stroke-width:0.00521655"
         id="path3646" />
      <path
         d="m 2.542538,295.91228 q 0.0023,0 0.00396,0.002 0.00167,0.002 0.00167,0.004 v 0.007 q 0,0.002 -0.00167,0.004 -0.00167,0.002 -0.00396,0.002 h -0.012102 q -0.011685,0 -0.017945,0.006 -0.00605,0.006 -0.00605,0.0177 v 0.0609 q 0,0.002 -0.00167,0.004 -0.00167,0.002 -0.00396,0.002 h -0.00772 q -0.0023,0 -0.00396,-0.002 -0.00167,-0.002 -0.00167,-0.004 v -0.0972 q 0,-0.002 0.00167,-0.004 0.00167,-0.002 0.00396,-0.002 h 0.00772 q 0.0023,0 0.00396,0.002 0.00167,0.002 0.00167,0.004 v 0.006 q 0.00417,-0.006 0.010016,-0.009 0.00584,-0.003 0.015232,-0.003 z"
         style="stroke-width:0.00521655"
         id="path3648" />
      <path
         d="m 2.5853138,295.92438 q 0.00501,-0.006 0.011268,-0.0102 0.00626,-0.004 0.016693,-0.004 0.024414,0 0.034221,0.0182 0.00605,-0.009 0.013772,-0.0134 0.00772,-0.005 0.02024,-0.005 0.020449,0 0.030256,0.0123 0.010016,0.0123 0.010016,0.0349 v 0.0578 q 0,0.002 -0.00167,0.004 -0.00167,0.002 -0.00396,0.002 h -0.00772 q -0.0023,0 -0.00396,-0.002 -0.00167,-0.002 -0.00167,-0.004 v -0.0557 q 0,-0.0313 -0.024622,-0.0313 -0.011268,0 -0.017945,0.008 -0.00668,0.008 -0.00668,0.0223 v 0.0572 q 0,0.002 -0.00167,0.004 -0.00167,0.002 -0.00396,0.002 h -0.00772 q -0.0023,0 -0.00396,-0.002 -0.00167,-0.002 -0.00167,-0.004 v -0.0557 q 0,-0.0313 -0.024622,-0.0313 -0.011268,0 -0.017945,0.008 -0.00668,0.008 -0.00668,0.0223 v 0.0572 q 0,0.002 -0.00167,0.004 -0.00167,0.002 -0.00396,0.002 h -0.00772 q -0.0023,0 -0.00396,-0.002 -0.00167,-0.002 -0.00167,-0.004 v -0.0972 q 0,-0.002 0.00167,-0.004 0.00167,-0.002 0.00396,-0.002 h 0.00772 q 0.0023,0 0.00396,0.002 0.00167,0.002 0.00167,0.004 z"
         style="stroke-width:0.00521655"
         id="path3650" />
      <path
         d="m 2.7731099,295.89204 q 0,0.002 -0.00167,0.004 -0.00167,0.002 -0.00396,0.002 h -0.011894 q -0.0023,0 -0.00396,-0.002 -0.00167,-0.002 -0.00167,-0.004 v -0.0119 q 0,-0.002 0.00167,-0.004 0.00167,-0.002 0.00396,-0.002 h 0.011894 q 0.0023,0 0.00396,0.002 0.00167,0.002 0.00167,0.004 z m -0.00209,0.12311 q 0,0.002 -0.00167,0.004 -0.00167,0.002 -0.00396,0.002 h -0.00772 q -0.0023,0 -0.00396,-0.002 -0.00167,-0.002 -0.00167,-0.004 v -0.0972 q 0,-0.002 0.00167,-0.004 0.00167,-0.002 0.00396,-0.002 h 0.00772 q 0.0023,0 0.00396,0.002 0.00167,0.002 0.00167,0.004 z"
         style="stroke-width:0.00521655"
         id="path3652" />
      <path
         d="m 2.8987245,296.01515 q 0,0.002 -0.00167,0.004 -0.00167,0.002 -0.00396,0.002 h -0.00772 q -0.0023,0 -0.00396,-0.002 -0.00167,-0.002 -0.00167,-0.004 v -0.0551 q 0,-0.0156 -0.00772,-0.0238 -0.00772,-0.008 -0.021492,-0.008 -0.013563,0 -0.021492,0.008 -0.00772,0.008 -0.00772,0.0238 v 0.0551 q 0,0.002 -0.00167,0.004 -0.00167,0.002 -0.00396,0.002 h -0.00772 q -0.0023,0 -0.00396,-0.002 -0.00167,-0.002 -0.00167,-0.004 v -0.0972 q 0,-0.002 0.00167,-0.004 0.00167,-0.002 0.00396,-0.002 h 0.00772 q 0.0023,0 0.00396,0.002 0.00167,0.002 0.00167,0.004 v 0.006 q 0.00459,-0.006 0.01252,-0.01 0.00814,-0.004 0.019823,-0.004 0.013146,0 0.02337,0.006 0.010224,0.006 0.015858,0.0163 0.00584,0.0104 0.00584,0.0248 z"
         style="stroke-width:0.00521655"
         id="path3654" />
      <path
         d="m 2.9934573,295.95213 v -0.003 q 0,-0.0102 -0.00689,-0.0156 -0.00668,-0.006 -0.017528,-0.006 -0.00835,0 -0.013146,0.003 -0.00459,0.003 -0.00876,0.008 -0.00125,0.002 -0.00271,0.002 -0.00146,6.3e-4 -0.00396,6.3e-4 h -0.00626 q -0.0023,0 -0.00417,-0.002 -0.00167,-0.002 -0.00146,-0.004 6.26e-4,-0.006 0.00605,-0.0123 0.00563,-0.006 0.014815,-0.0102 0.00918,-0.004 0.019614,-0.004 0.019406,0 0.031299,0.0109 0.012102,0.0109 0.012102,0.0305 v 0.0636 q 0,0.002 -0.00167,0.004 -0.00167,0.002 -0.00396,0.002 h -0.00772 q -0.0023,0 -0.00396,-0.002 -0.00167,-0.002 -0.00167,-0.004 v -0.009 q -0.00334,0.008 -0.014189,0.0119 -0.01085,0.004 -0.021701,0.004 -0.010642,0 -0.018988,-0.004 -0.00835,-0.004 -0.012937,-0.0106 -0.00438,-0.007 -0.00438,-0.015 0,-0.0156 0.011685,-0.0244 0.011685,-0.009 0.031091,-0.0121 z m 0,0.0167 -0.024622,0.004 q -0.013563,0.002 -0.021075,0.007 -0.00751,0.005 -0.00751,0.0117 0,0.005 0.0048,0.009 0.0048,0.004 0.014606,0.004 0.015024,0 0.024414,-0.009 0.00939,-0.009 0.00939,-0.0223 z"
         style="stroke-width:0.00521655"
         id="path3656" />
      <path
         d="m 3.0618984,296.01515 q 0,0.002 -0.00167,0.004 -0.00167,0.002 -0.00396,0.002 h -0.00772 q -0.0023,0 -0.00396,-0.002 -0.00167,-0.002 -0.00167,-0.004 v -0.13688 q 0,-0.002 0.00167,-0.004 0.00167,-0.002 0.00396,-0.002 h 0.00772 q 0.0023,0 0.00396,0.002 0.00167,0.002 0.00167,0.004 z"
         style="stroke-width:0.00521655"
         id="path3658" />
    </g>
    <circle
       style="opacity:1;fill:url(#linearGradient822-687);fill-opacity:1;stroke:none;stroke-width:0.02068981;stroke-linecap:round;stroke-linejoin:round;stroke-miterlimit:4;stroke-dasharray:none;stroke-dashoffset:0;stroke-opacity:1;paint-order:normal"
       id="path814-3"
       cx="78.216904"
       cy="285.00922"
       r="0.33103681"
       transform="rotate(15)"
       inkscape:export-filename="/home/victor/newcontemporary.png"
       inkscape:export-xdpi="2165.5593"
       inkscape:export-ydpi="2165.5593" />
    <path
       style="opacity:1;fill:#000000;fill-opacity:1;stroke:none;stroke-width:0.02817917;stroke-linecap:round;stroke-linejoin:round;stroke-miterlimit:4;stroke-dasharray:none;stroke-dashoffset:0;stroke-opacity:1;paint-order:normal"
       d="m 1.8073308,295.46187 c -0.044287,-0.0113 -0.089492,0.0142 -0.1013595,0.0585 l -0.082844,0.30918 a 0.33103681,0.33103681 0 0 0 0.077105,0.032 0.33103681,0.33103681 0 0 0 0.4054354,-0.23408 0.33103681,0.33103681 0 0 0 0.010999,-0.0827 z"
       id="rect824-3"
       inkscape:connector-curvature="0"
       inkscape:export-filename="/home/victor/newcontemporary.png"
       inkscape:export-xdpi="2165.5593"
       inkscape:export-ydpi="2165.5593" />
    <text
       xml:space="preserve"
       style="font-style:normal;font-variant:normal;font-weight:normal;font-stretch:normal;font-size:0.31781051px;line-height:1.25;font-family:Contemporary;-inkscape-font-specification:Contemporary;letter-spacing:0px;word-spacing:0px;fill:#ffffff;fill-opacity:1;stroke:none;stroke-width:0.00794526"
       x="78.202209"
       y="285.24106"
       id="text881-3"
       transform="rotate(15)"
       inkscape:export-filename="/home/victor/newcontemporary.png"
       inkscape:export-xdpi="2165.5593"
       inkscape:export-ydpi="2165.5593"><tspan
         sodipodi:role="line"
         id="tspan879-7"
         x="78.202209"
         y="285.24106"
         style="stroke-width:0.00794526">$</tspan></text>
  </g>
</svg>
